<svg xmlns="http://www.w3.org/2000/svg" viewBox="0 0 480.95 452.06"><defs><style>.cls-1{fill:#0d6efd;}.cls-2{fill:#61c5ff;}</style></defs><g id="Слой_2" data-name="Слой 2"><g id="Слой_1-2" data-name="Слой 1"><path class="cls-1" d="M80,303.78a5,5,0,0,1-5-5v-285C74.94,6.15,80.81,0,88,0H394.18c7.21,0,13.08,6.15,13.08,13.71V162.34a5,5,0,0,1-10.05,0V13.71c0-2-1.36-3.67-3-3.67H88c-1.68,0-3,1.65-3,3.67V298.76A5,5,0,0,1,80,303.78Z"/><rect class="cls-2" x="104.85" y="30.41" width="104.29" height="104.29" rx="8.69"/><rect class="cls-2" x="230" y="30.41" width="108.05" height="20.86" rx="8.69"/><rect class="cls-2" x="230" y="72.12" width="145.44" height="20.86" rx="8.69"/><rect class="cls-2" x="104.85" y="176.41" width="221.95" height="20.86" rx="8.69"/><rect class="cls-2" x="104.85" y="218.13" width="125.15" height="20.86" rx="8.69"/><rect class="cls-2" x="230" y="113.84" width="125.45" height="20.86" rx="8.69"/><path class="cls-2" d="M407.26,230.39v60.18a5.22,5.22,0,0,1-5.22,5.21h-63.2a5.21,5.21,0,0,1-5.21-5.21V272l.1,0c12.78-6.47,25.48-13.11,38-20.22Q389.77,241.61,407.26,230.39Z"/><path class="cls-1" d="M120.22,351.21v24.54A5.23,5.23,0,0,1,115,381H80.17A5.22,5.22,0,0,1,75,375.75V359.57c5.3-.68,10.58-1.46,15.82-2.4q10.71-1.85,21.31-4.13Q116.16,352.16,120.22,351.21Z"/><rect class="cls-2" x="106.4" y="396.85" width="27.63" height="27.63" rx="5.21"/><rect class="cls-1" x="152.6" y="391.3" width="46.11" height="46.11" rx="5.21"/><rect class="cls-1" x="332.19" y="373.6" width="41.08" height="41.08" rx="5.21"/><rect class="cls-1" x="225.64" y="364.35" width="41.08" height="41.08" rx="5.21"/><rect class="cls-1" x="281.16" y="401.48" width="35.93" height="35.93" rx="5.21"/><rect class="cls-2" x="287.15" y="357.03" width="23.95" height="23.95" rx="5.21"/><rect class="cls-2" x="220.33" y="422.76" width="29.3" height="29.3" rx="5.21"/><rect class="cls-1" x="342.27" y="312.75" width="46.33" height="46.33" rx="5.21"/><path class="cls-1" d="M316.13,280.59v58.14a5.22,5.22,0,0,1-5.22,5.22H246.32a5.21,5.21,0,0,1-5.21-5.22V313q7.21-2.79,14.37-5.66c13.25-5.45,26.42-11,39.47-16.92C302,287.21,309.1,284,316.13,280.59Z"/><path class="cls-2" d="M211.19,324.22v44.16A5.22,5.22,0,0,1,206,373.6H155a5.21,5.21,0,0,1-5.21-5.22V343.7c8.32-2.31,16.58-4.78,24.82-7.3C186.89,332.61,199.08,328.48,211.19,324.22Z"/><path class="cls-1" d="M454.64,119.51c1,0,1.94,0,2.92.06a39.71,39.71,0,0,1,11.67,1.9,20.75,20.75,0,0,1,6.1,3.2,10.37,10.37,0,0,1,1.44,1.32,11.56,11.56,0,0,1,1.34,1.52,14.89,14.89,0,0,1,2.6,11.72,27.52,27.52,0,0,1-2,6.56,54.31,54.31,0,0,1-6.24,10.38,133.12,133.12,0,0,1-15.26,16.58c-5.37,5.06-11,9.72-16.69,14.25s-11.53,8.82-17.44,13-11.86,8.24-17.93,12.12Q387,223.82,368.22,234.35c-12.48,7.1-25.19,13.74-38,20.21s-25.76,12.54-38.78,18.49S265.24,284.52,252,290s-26.65,10.47-40.12,15.36-27.06,9.43-40.77,13.66-27.51,8.23-41.48,11.69c-7,1.74-14,3.43-21,4.95s-14.15,2.89-21.29,4.14S73,342,65.7,342.87s-14.61,1.43-22.09,1.52H41.17a97.82,97.82,0,0,1-20.68-1.82,45.59,45.59,0,0,1-6.17-1.78,28.71,28.71,0,0,1-6.46-3.24,18.81,18.81,0,0,1-5.95-6.39,16.18,16.18,0,0,1-1.85-9,21.6,21.6,0,0,1,2-7.3,35.82,35.82,0,0,1,3.26-5.56,62.26,62.26,0,0,1,7.7-8.77,139.88,139.88,0,0,1,17.15-13.78,294.35,294.35,0,0,1,37.1-21.6c-11.12,8.9-22.06,18-32.19,27.6a149.64,149.64,0,0,0-14,15.1,55.51,55.51,0,0,0-5.33,8c-1.4,2.6-2.28,5.4-2,6.85a1.85,1.85,0,0,0,.54,1.23,6.69,6.69,0,0,0,1.54,1,23.54,23.54,0,0,0,7.39,1.74c2,.2,4.17.28,6.36.28a112.57,112.57,0,0,0,12.93-.83c13.36-1.54,26.91-4.48,40.35-7.78,26.91-6.76,53.62-15.23,80.05-24.43,13.22-4.61,26.41-9.35,39.5-14.37s26.19-10.05,39.18-15.35,26-10.67,38.83-16.24,25.69-11.29,38.44-17.12c25.47-11.72,50.64-24.08,75.15-37.46,12.24-6.71,24.3-13.7,35.94-21.18,5.82-3.73,11.49-7.65,17-11.72A126.21,126.21,0,0,0,462,147.44a42.32,42.32,0,0,0,5.72-7.12,16.5,16.5,0,0,0,1.62-3.41,4.43,4.43,0,0,0,.06-3.56c0-.2-.24-.34-.34-.53s-.17-.41-.41-.58a11,11,0,0,0-3-2.16,34,34,0,0,0-9-2.85,117.08,117.08,0,0,0-20.63-1.71c-1.05,0-2.11,0-3.17,0-6,0-12,.3-18.08.59,6.87-1.92,13.84-3.45,20.92-4.72a117.52,117.52,0,0,1,18.9-1.85"/></g></g></svg>